# Blender v2.79 (sub 0) OBJ File: 'Arbres.blend'
# www.blender.org
mtllib Grass_1.mtl
g Plane.010_Plane.028
v 0.394549 0.001647 -0.254198
v 0.442119 0.737439 -0.362115
v -0.312466 -0.000908 -0.254198
v -0.076794 -0.000056 -0.254198
v 0.158877 0.000795 -0.254198
v 0.182225 0.771916 -0.398164
v -0.109455 0.763403 -0.306856
v -0.350687 0.749283 -0.360706
v 0.164855 0.287772 -0.290716
v -0.074120 0.283494 -0.215670
v -0.311330 0.284929 -0.254198
v 0.189212 0.559658 -0.323508
v -0.081118 0.557379 -0.199976
v -0.325199 0.541513 -0.286804
v -0.194630 -0.000482 -0.254198
v -0.227288 0.762634 -0.306304
v -0.191953 0.282661 -0.215354
v -0.198950 0.556549 -0.239765
v 0.041042 0.000370 -0.254198
v 0.055075 0.763709 -0.397929
v 0.046466 0.284975 -0.252505
v 0.065787 0.553491 -0.323462
v 0.276713 0.001221 -0.254198
v 0.334780 0.797393 -0.361880
v 0.281010 0.287803 -0.290716
v 0.318679 0.584134 -0.287036
v -0.464332 0.757632 -0.360471
v -0.429166 0.284504 -0.254198
v -0.440414 0.546534 -0.286758
v -0.430301 -0.001334 -0.254198
v -0.353349 0.817647 -0.409557
v -0.466646 0.826718 -0.409322
v -0.112245 0.889768 -0.396716
v -0.346535 0.885855 -0.454650
v -0.230077 0.888999 -0.396164
v 0.005588 0.890538 -0.357118
v 0.179430 0.847120 -0.451721
v 0.068243 0.838345 -0.451516
v 0.322949 0.932110 -0.384076
v 0.395117 0.144566 -0.254198
v -0.311898 0.142011 -0.254198
v -0.076226 0.142862 -0.254198
v 0.159445 0.143714 -0.254198
v -0.194062 0.142437 -0.254198
v 0.041609 0.143288 -0.254198
v 0.277281 0.144140 -0.254198
v -0.429733 0.141585 -0.254198
v 0.397344 0.287875 -0.254198
v 0.432314 0.583569 -0.287082
v -0.204912 0.547027 -0.286850
v -0.226660 0.762496 -0.360941
v -0.193494 0.285355 -0.254198
v 0.036714 0.558208 -0.200338
v 0.008378 0.764173 -0.267258
v 0.311415 0.582425 -0.255705
v 0.338038 0.851146 -0.330550
v -0.228699 0.886210 -0.454885
v 0.193578 0.582001 -0.255659
v -0.109455 0.763403 -0.266706
v 0.220202 0.850791 -0.330315
v -0.112245 0.889768 -0.356565
v 0.220202 0.931801 -0.383871
vt 0.807262 0.638684
vt 0.916001 0.644444
vt 0.916001 0.808755
vt 0.807990 0.855805
vt 0.789454 0.211231
vt 0.902051 0.220582
vt 0.899023 0.357890
vt 0.782265 0.353512
vt 0.097419 0.272408
vt 0.209572 0.285661
vt 0.168160 0.530615
vt 0.057842 0.522652
vt 0.322334 0.300960
vt 0.433975 0.315056
vt 0.396443 0.574273
vt 0.278587 0.559881
vt 0.553727 0.326486
vt 0.671167 0.345282
vt 0.672963 0.608062
vt 0.555865 0.592577
vt 0.112443 0.136255
vt 0.224606 0.149494
vt 0.336777 0.162732
vt 0.448927 0.176334
vt 0.561997 0.190111
vt 0.675955 0.201768
vt 0.119845 0.737959
vt 0.010719 0.733012
vt 0.313741 0.781607
vt 0.204494 0.754776
vt 0.648211 0.821796
vt 0.527717 0.804118
vt 0.282191 0.548841
vt 0.236608 0.763436
vt 0.321759 0.298897
vt 0.508155 0.588275
vt 0.457104 0.790613
vt 0.345391 0.776610
vt 0.790399 0.639442
vt 0.677719 0.630725
vt 0.796181 0.908131
vt 0.683501 0.899429
vt 0.108968 0.817811
vt 0.000096 0.813457
vt 0.277000 0.925027
vt 0.167753 0.898196
vt 0.215701 0.910814
vt 0.103769 0.896020
vt 0.437213 0.937446
vt 0.325500 0.923443
vt 0.637439 0.909421
vt 0.532152 0.892725
vt 0.774916 0.999904
vt 0.676665 0.992317
vt 0.688408 0.064604
vt 0.800360 0.074869
vt 0.463966 0.039807
vt 0.576306 0.052811
vt 0.239631 0.013333
vt 0.351799 0.026570
vt 0.127466 0.000096
vt 0.912541 0.084470
vn -0.0352 0.2142 0.9761
vn -0.0203 0.2315 0.9726
vn 0.1024 0.3698 0.9235
vn -0.0380 0.0947 0.9948
vn -0.0776 0.0648 0.9949
vn -0.1547 0.0970 0.9832
vn -0.0750 0.0777 0.9941
vn 0.0013 0.0631 0.9980
vn -0.0001 0.0625 0.9980
vn -0.0016 0.2262 0.9741
vn 0.0124 0.2387 0.9710
vn -0.0823 -0.1289 0.9882
vn 0.0367 -0.1301 0.9908
vn -0.0372 0.1409 0.9893
vn -0.1625 0.2055 0.9651
vn 0.1544 0.0061 0.9880
vn 0.0777 0.1112 0.9907
vn 0.0609 0.2593 0.9639
vn 0.0682 0.2524 0.9652
vn 0.0000 0.0000 1.0000
vn 0.0007 -0.0662 0.9978
vn 0.0386 -0.1034 0.9939
vn 0.0779 -0.0089 0.9969
vn 0.0405 0.0898 0.9951
vn 0.0035 0.4541 0.8909
vn 0.0349 0.4722 0.8808
vn -0.0814 0.4729 0.8773
vn -0.0750 0.4818 0.8730
vn -0.0295 0.4644 0.8851
vn -0.0285 0.4533 0.8909
vn -0.0134 0.2258 0.9741
vn -0.0280 0.4644 0.8851
vn -0.0014 0.0619 0.9981
vn 0.0838 0.0876 0.9926
vn 0.0009 0.4437 0.8961
vn 0.0008 0.4553 0.8903
vn 0.0003 0.0891 0.9960
vn 0.0003 0.0638 0.9980
vn 0.0001 0.4122 0.9111
vn 0.0001 0.4102 0.9120
vn 0.0462 0.5799 0.8134
vn 0.0000 0.5795 0.8149
vn -0.0313 0.5852 0.8103
vn -0.0400 0.5830 0.8115
vn 0.0000 0.5515 0.8342
usemtl None
s 1
f 26/1/1 49/2/2 2/3/3 24/4/3
f 46/5/4 40/6/5 48/7/6 25/8/7
f 25/8/7 48/7/6 49/2/2 26/1/1
f 28/9/8 11/10/9 14/11/10 29/12/11
f 17/13/12 10/14/13 13/15/14 18/16/15
f 21/17/16 9/18/17 12/19/18 22/20/19
f 47/21/20 41/22/20 11/10/9 28/9/8
f 44/23/21 42/24/22 10/14/13 17/13/12
f 45/25/23 43/26/24 9/18/17 21/17/16
f 29/12/11 14/11/10 8/27/25 27/28/26
f 18/16/15 13/15/14 7/29/27 16/30/28
f 22/20/19 12/19/18 6/31/29 20/32/30
f 14/11/10 50/33/31 51/34/32 8/27/25
f 41/22/20 44/23/21 52/35/33 11/10/9
f 11/10/9 52/35/33 50/33/31 14/11/10
f 13/15/14 53/36/34 54/37/35 59/38/36
f 42/24/22 45/25/23 21/17/16 10/14/13
f 10/14/13 21/17/16 53/36/34 13/15/14
f 9/18/17 25/8/7 55/39/37 58/40/38
f 43/26/24 46/5/4 25/8/7 9/18/17
f 58/40/38 55/39/37 56/41/39 60/42/40
f 27/28/26 8/27/25 31/43/41 32/44/41
f 16/30/28 7/29/27 33/45/42 35/46/42
f 8/27/25 51/34/32 57/47/43 34/48/43
f 59/38/36 54/37/35 36/49/42 61/50/42
f 20/32/30 6/31/29 37/51/44 38/52/44
f 60/42/40 56/41/39 39/53/45 62/54/45
f 5/55/20 23/56/20 46/5/4 43/26/24
f 4/57/20 19/58/20 45/25/23 42/24/22
f 3/59/20 15/60/20 44/23/21 41/22/20
f 19/58/20 5/55/20 43/26/24 45/25/23
f 15/60/20 4/57/20 42/24/22 44/23/21
f 30/61/20 3/59/20 41/22/20 47/21/20
f 23/56/20 1/62/20 40/6/5 46/5/4
