# Blender v2.79 (sub 0) OBJ File: 'Enterrement.blend'
# www.blender.org
mtllib Cross.mtl
o Cube.007_Cube.002
v 0.753222 0.236043 4.475749
v 0.753222 0.236043 4.295954
v 0.753222 0.056248 4.475749
v 0.753222 0.056248 4.295954
v 0.890686 0.286249 4.475749
v 0.890686 0.286249 4.295954
v 0.890686 0.006042 4.475749
v 0.890686 0.006042 4.295954
v 1.038725 0.223183 4.475749
v 1.038725 0.223183 4.295954
v 1.038725 0.069109 4.475749
v 1.038725 0.069109 4.295954
v -0.645903 0.248731 4.475749
v -0.645903 0.248731 4.295954
v -0.645903 0.068936 4.475749
v -0.645903 0.068936 4.295954
v -0.783368 0.298937 4.475749
v -0.783368 0.298937 4.295954
v -0.783368 0.018731 4.475749
v -0.783368 0.018731 4.295954
v -0.931406 0.235871 4.475749
v -0.931406 0.235871 4.295954
v -0.931406 0.081797 4.475749
v -0.931406 0.081797 4.295954
v 0.043994 0.248732 4.475749
v 0.043994 0.248732 4.295954
v 0.043994 0.068937 4.295954
v 0.043994 0.068937 4.475749
vt 0.689152 0.494768
vt 0.689152 0.854556
vt 0.521755 0.854556
vt 0.521755 0.494768
vt 0.219974 0.494727
vt 0.213165 0.854535
vt 0.045772 0.855227
vt 0.052581 0.495419
vt 0.689152 0.504594
vt 0.689153 0.144806
vt 0.856550 0.144806
vt 0.856550 0.504594
vt 0.469173 0.495419
vt 0.475982 0.855227
vt 0.308590 0.854536
vt 0.301781 0.494727
vt 0.260877 0.924072
vt 0.000000 0.925149
vt 0.856550 0.074995
vt 0.689153 0.074995
vt 0.689153 0.000000
vt 0.856550 0.000000
vt 0.689152 0.924208
vt 0.521755 0.924208
vt 0.521755 0.925149
vt 0.260877 0.924072
vt 1.000000 0.182409
vt 0.856550 0.182409
vt 0.856550 0.091205
vt 1.000000 0.091205
vt 0.689152 0.999403
vt 0.521755 0.999403
vt 0.461994 1.000000
vt 0.318548 0.999408
vt 0.203206 0.999408
vt 0.059761 1.000000
vt 0.521755 0.144806
vt 0.689152 0.144806
vt 0.047712 0.145465
vt 0.215105 0.144773
vt 0.856550 0.854556
vt 0.689153 0.854556
vt 0.306650 0.144773
vt 0.474042 0.145465
vt 0.000000 0.075928
vt 0.260877 0.074851
vt 0.856550 0.924208
vt 0.856550 0.999403
vt 0.689152 0.999403
vt 0.689152 0.924208
vt 0.521755 0.074995
vt 0.689152 0.074995
vt 0.260877 0.074851
vt 0.521755 0.075928
vt 1.000000 0.000000
vt 1.000000 0.091205
vt 0.856550 0.091205
vt 0.856550 0.000000
vt 0.521755 0.000000
vt 0.689152 0.000000
vt 0.320638 0.000000
vt 0.464083 0.000592
vt 0.057671 0.000592
vt 0.201117 0.000000
vn 0.0179 0.9998 0.0000
vn -0.0000 0.0000 -1.0000
vn -0.0179 -0.9998 -0.0000
vn 0.0000 0.0000 1.0000
vn 0.3919 -0.9200 -0.0000
vn -0.3431 -0.9393 0.0000
vn -0.3431 0.9393 0.0000
vn 1.0000 0.0000 0.0000
vn 0.3919 0.9200 -0.0000
vn -0.0000 1.0000 0.0000
vn 0.0000 -1.0000 0.0000
vn -0.3919 -0.9200 0.0000
vn 0.3431 -0.9393 -0.0000
vn 0.3431 0.9393 0.0000
vn -1.0000 0.0000 0.0000
vn -0.3919 0.9200 0.0000
usemtl None
s off
f 25/1/1 1/2/1 2/3/1 26/4/1
f 26/5/2 2/6/2 4/7/2 27/8/2
f 27/9/3 4/10/3 3/11/3 28/12/3
f 28/13/4 3/14/4 1/15/4 25/16/4
f 4/7/2 2/6/2 6/17/2 8/18/2
f 7/19/5 8/20/5 12/21/5 11/22/5
f 3/11/6 4/10/6 8/20/6 7/19/6
f 2/3/7 1/2/7 5/23/7 6/24/7
f 1/15/4 3/14/4 7/25/4 5/26/4
f 12/27/8 10/28/8 9/29/8 11/30/8
f 6/24/9 5/23/9 9/31/9 10/32/9
f 5/26/4 7/25/4 11/33/4 9/34/4
f 8/18/2 6/17/2 10/35/2 12/36/2
f 25/1/10 26/4/10 14/37/10 13/38/10
f 26/5/2 27/8/2 16/39/2 14/40/2
f 27/9/11 28/12/11 15/41/11 16/42/11
f 28/13/4 25/16/4 13/43/4 15/44/4
f 16/39/2 20/45/2 18/46/2 14/40/2
f 19/47/12 23/48/12 24/49/12 20/50/12
f 15/41/13 19/47/13 20/50/13 16/42/13
f 14/37/14 18/51/14 17/52/14 13/38/14
f 13/43/4 17/53/4 19/54/4 15/44/4
f 24/55/15 23/56/15 21/57/15 22/58/15
f 18/51/16 22/59/16 21/60/16 17/52/16
f 17/53/4 21/61/4 23/62/4 19/54/4
f 20/45/2 24/63/2 22/64/2 18/46/2
o Cube.006_Cube.001
v -0.045903 0.951404 4.434639
v -0.045903 0.951404 4.254843
v 0.133892 0.951404 4.434639
v 0.133892 0.951404 4.254843
v -0.096109 1.088868 4.434639
v -0.096109 1.088868 4.254843
v 0.184098 1.088868 4.434639
v 0.184098 1.088868 4.254843
v -0.033043 1.236906 4.434639
v -0.033043 1.236906 4.254843
v 0.121031 1.236906 4.434639
v 0.121031 1.236906 4.254843
v -0.045903 -3.228391 4.434639
v -0.045903 -3.228391 4.254843
v 0.133892 -3.228391 4.434639
v 0.133892 -3.228391 4.254843
v -0.096109 -3.365856 4.434639
v -0.096109 -3.365856 4.254843
v 0.184098 -3.365856 4.434639
v 0.184098 -3.365856 4.254843
v -0.033043 -3.513894 4.434639
v -0.033043 -3.513894 4.254843
v 0.121031 -3.513894 4.434639
v 0.121031 -3.513894 4.254843
v -0.045903 -0.138494 4.434639
v -0.045903 -0.138494 4.254843
v 0.133892 -0.138494 4.254843
v 0.133892 -0.138494 4.434639
vt 0.521762 0.289509
vt 0.521762 0.060096
vt 0.689157 0.060096
vt 0.689157 0.289509
vt 0.475019 0.710491
vt 0.475019 0.939904
vt 0.307624 0.939904
vt 0.307624 0.710491
vt 0.856552 0.710491
vt 0.856552 0.939904
vt 0.689158 0.939904
vt 0.689158 0.710491
vt 0.046743 0.289509
vt 0.046743 0.060096
vt 0.214138 0.060096
vt 0.214138 0.289509
vt 0.521762 0.968839
vt 0.260882 0.968839
vt 0.689158 0.968839
vt 0.856552 0.968839
vt 0.856552 1.000000
vt 0.689158 1.000000
vt 0.521762 0.031161
vt 0.689157 0.031161
vt 0.000000 0.031161
vt 0.260881 0.031161
vt 1.000000 0.075690
vt 0.856552 0.075691
vt 0.856552 0.037845
vt 1.000000 0.037845
vt 0.521762 0.000000
vt 0.689157 0.000000
vt 0.058716 0.000000
vt 0.202164 0.000000
vt 0.463046 1.000000
vt 0.319598 1.000000
vt 0.689158 0.939904
vt 0.521763 0.939904
vt 0.307624 0.060096
vt 0.475019 0.060096
vt 0.689158 0.060096
vt 0.856552 0.060096
vt 0.214138 0.939904
vt 0.046743 0.939904
vt 0.260881 0.031161
vt 0.521762 0.031161
vt 0.689158 0.031161
vt 0.689158 0.000000
vt 0.856552 0.000000
vt 0.856552 0.031161
vt 0.689158 0.968839
vt 0.521763 0.968839
vt 0.260881 0.968839
vt 0.000001 0.968839
vt 1.000000 0.000000
vt 1.000000 0.037845
vt 0.856552 0.037845
vt 0.856552 0.000000
vt 0.689158 1.000000
vt 0.521763 1.000000
vt 0.202165 1.000000
vt 0.058717 1.000000
vt 0.319598 0.000000
vt 0.463045 0.000000
vn -1.0000 0.0000 0.0000
vn 0.0000 0.0000 -1.0000
vn 1.0000 0.0000 0.0000
vn 0.0000 0.0000 1.0000
vn 0.9200 0.3919 0.0000
vn 0.9393 -0.3431 0.0000
vn -0.9393 -0.3431 0.0000
vn 0.0000 1.0000 0.0000
vn -0.9200 0.3919 0.0000
vn 0.9200 -0.3919 0.0000
vn 0.9393 0.3431 0.0000
vn -0.9393 0.3431 0.0000
vn 0.0000 -1.0000 0.0000
vn -0.9200 -0.3919 0.0000
usemtl None
s off
f 53/65/17 29/66/17 30/67/17 54/68/17
f 54/69/18 30/70/18 32/71/18 55/72/18
f 55/73/19 32/74/19 31/75/19 56/76/19
f 56/77/20 31/78/20 29/79/20 53/80/20
f 32/71/18 30/70/18 34/81/18 36/82/18
f 35/83/21 36/84/21 40/85/21 39/86/21
f 31/75/22 32/74/22 36/84/22 35/83/22
f 30/67/23 29/66/23 33/87/23 34/88/23
f 29/79/20 31/78/20 35/89/20 33/90/20
f 40/91/24 38/92/24 37/93/24 39/94/24
f 34/88/25 33/87/25 37/95/25 38/96/25
f 33/90/20 35/89/20 39/97/20 37/98/20
f 36/82/18 34/81/18 38/99/18 40/100/18
f 53/65/17 54/68/17 42/101/17 41/102/17
f 54/69/18 55/72/18 44/103/18 42/104/18
f 55/73/19 56/76/19 43/105/19 44/106/19
f 56/77/20 53/80/20 41/107/20 43/108/20
f 44/103/18 48/109/18 46/110/18 42/104/18
f 47/111/26 51/112/26 52/113/26 48/114/26
f 43/105/27 47/111/27 48/114/27 44/106/27
f 42/101/28 46/115/28 45/116/28 41/102/28
f 41/107/20 45/117/20 47/118/20 43/108/20
f 52/119/29 51/120/29 49/121/29 50/122/29
f 46/115/30 50/123/30 49/124/30 45/116/30
f 45/117/20 49/125/20 51/126/20 47/118/20
f 48/109/18 52/127/18 50/128/18 46/110/18
